<?xml version="1.0" encoding="utf-8"?>
<!-- Generator: Adobe Illustrator 19.2.1, SVG Export Plug-In . SVG Version: 6.00 Build 0)  -->
<svg version="1.2" baseProfile="tiny" id="Layer_1" xmlns="http://www.w3.org/2000/svg" xmlns:xlink="http://www.w3.org/1999/xlink"
	 x="0px" y="0px" viewBox="0 0 24 24" xml:space="preserve">
<g>
	<circle fill="none" cx="12" cy="5.3" r="0.9"/>
	<path fill="none" d="M12,8.7c-1.8,0-3.3,1.5-3.3,3.3s1.5,3.3,3.3,3.3s3.3-1.5,3.3-3.3S13.8,8.7,12,8.7z M12,14c-1.1,0-2-0.9-2-2
		s0.9-2,2-2s2,0.9,2,2S13.1,14,12,14z"/>
	<circle fill="none" cx="7.3" cy="7.3" r="0.9"/>
	<circle fill="none" cx="5.4" cy="12" r="0.9"/>
	<circle fill="#010202" cx="12" cy="12" r="2"/>
	<path fill="#010202" d="M24,12c0-6.6-5.4-12-12-12H12C5.4,0,0,5.4,0,12c0,6.6,5.4,12,12,12h0C18.6,24,24,18.6,24,12L24,12z M12,4.4
		c0.5,0,0.9,0.4,0.9,0.9c0,0.5-0.4,0.9-0.9,0.9c-0.5,0-0.9-0.4-0.9-0.9C11.1,4.8,11.5,4.4,12,4.4z M5.4,12.9c-0.5,0-0.9-0.4-0.9-0.9
		c0-0.5,0.4-0.9,0.9-0.9c0.5,0,0.9,0.4,0.9,0.9C6.3,12.5,5.9,12.9,5.4,12.9z M7.3,8.3c-0.5,0-0.9-0.4-0.9-0.9c0-0.5,0.4-0.9,0.9-0.9
		c0.5,0,0.9,0.4,0.9,0.9C8.2,7.8,7.8,8.3,7.3,8.3z M12,15.3c-1.8,0-3.3-1.5-3.3-3.3s1.5-3.3,3.3-3.3s3.3,1.5,3.3,3.3
		S13.8,15.3,12,15.3z"/>
</g>
</svg>
