<?xml version="1.0" encoding="utf-8"?>
<!-- Generator: Adobe Illustrator 19.2.1, SVG Export Plug-In . SVG Version: 6.00 Build 0)  -->
<svg version="1.2" baseProfile="tiny" id="Layer_1" xmlns="http://www.w3.org/2000/svg" xmlns:xlink="http://www.w3.org/1999/xlink"
	 x="0px" y="0px" viewBox="0 0 342 327.2" xml:space="preserve">
<g>
	<path fill="none" d="M146.2,63c6.4,0,11.6-5.2,11.6-11.6c0-6.4-5.2-11.6-11.6-11.6c-6.4,0-11.6,5.2-11.6,11.6
		C134.6,57.9,139.8,63,146.2,63z"/>
	<path fill="none" d="M93.8,51.4c0-6.4-5.2-11.6-11.6-11.6c-6.4,0-11.6,5.2-11.6,11.6c0,6.4,5.2,11.6,11.6,11.6
		C88.6,63,93.8,57.9,93.8,51.4z"/>
	<path fill="none" d="M210.2,63c6.4,0,11.6-5.2,11.6-11.6c0-6.4-5.2-11.6-11.6-11.6c-6.4,0-11.6,5.2-11.6,11.6
		C198.6,57.9,203.8,63,210.2,63z"/>
	<path d="M142.3,175.3c-5.6-9.6-2.4-22.1,7.3-27.7c9.6-5.6,22.1-2.4,27.7,7.3l5.5,8.8c2.1-4.9,3.3-10.2,3.3-15.9
		c0-22-17.9-39.9-39.9-39.9c-22,0-39.9,17.9-39.9,39.9c0,22,17.9,39.9,39.9,39.9c1.4,0,2.7-0.1,4.1-0.2l-7.9-12.1
		C142.4,175.4,142.4,175.3,142.3,175.3z"/>
</g>
<path d="M339,241.1c-0.1-0.3-0.2-0.6-0.4-0.9l-44.4-73.4c-0.1-0.1-0.2-0.3-0.3-0.4V74c0-0.8-0.1-18.6-9.1-36.6
	C276.4,20.3,258.2,0,220,0H74c-0.7,0-18.6,0.1-36.6,9.1C20.3,17.6,0,35.8,0,74V220c0,0.7,0.1,18.6,9.1,36.6
	C17.6,273.7,35.8,294,74,294h86.6c0.3,0.8,0.7,1.5,1.1,2.2c1.9,3,6.2,6.5,15.4,6c17-0.9,43.3,1.6,61.2,11.6
	c11.2,6.2,24.1,13.4,39,13.4c8.9,0,18.5-2.5,28.8-9.4C325.8,304.9,350.6,282.9,339,241.1z M210.2,39.8c6.4,0,11.6,5.2,11.6,11.6
	c0,6.4-5.2,11.6-11.6,11.6c-6.4,0-11.6-5.2-11.6-11.6C198.6,45,203.8,39.8,210.2,39.8z M146.2,39.8c6.4,0,11.6,5.2,11.6,11.6
	c0,6.4-5.2,11.6-11.6,11.6c-6.4,0-11.6-5.2-11.6-11.6C134.6,45,139.8,39.8,146.2,39.8z M70.6,51.4c0-6.4,5.2-11.6,11.6-11.6
	c6.4,0,11.6,5.2,11.6,11.6c0,6.4-5.2,11.6-11.6,11.6C75.8,63,70.6,57.9,70.6,51.4z M90.3,147.8c0-30.8,25.1-55.9,55.9-55.9
	c30.8,0,55.9,25.1,55.9,55.9c0,11.6-3.6,22.4-9.7,31.4l-15.1-24.3c-5.6-9.6-18.1-12.9-27.7-7.3c-9.6,5.6-12.9,18.1-7.3,27.7
	c0,0,0.1,0.1,0.1,0.1l17.3,26.6c-4.3,1.1-8.9,1.7-13.5,1.7C115.4,203.7,90.3,178.6,90.3,147.8z M302.2,311.9
	c-22.4,14.7-39.9,7.1-60.5-4.3c-19.2-10.7-46.2-13.4-65-12.4c-3.2,0.2-7.4-0.2-9.1-2.7c-1.6-2.5-0.7-6.7,0.3-8.7
	c0.1-0.1,0.1-0.3,0.2-0.4c6.9-18.7,35.4-15.9,35.7-15.8c1.4,0.2,2.7-0.5,3.4-1.7c0.7-1.2,0.7-2.6,0-3.8l-58.8-90.4
	c-3.6-6.3-1.5-14.3,4.8-17.9c6.3-3.7,14.3-1.5,18.1,4.8l47.8,77c1,1.7,3.2,2.2,4.9,1.1c1.7-1,2.2-3.2,1.1-4.9l-21.3-34.4
	c-0.1-0.3-0.2-0.7-0.4-1c-1.8-3.1-2.4-6.6-1.6-9.9c0.7-3.2,2.7-5.9,5.4-7.5c5.7-3.4,13.4-1,17.1,5.3c0,0,0,0.1,0.1,0.1l24,38.5
	c0.7,1.1,1.8,1.7,3,1.7c0.6,0,1.3-0.2,1.9-0.5c1.7-1,2.2-3.2,1.1-4.9l-19.1-30.6c-0.1-0.3-0.2-0.5-0.3-0.7c-1.8-3.1-2.5-6.6-1.8-9.9
	c0.6-3.1,2.3-5.6,4.8-7c5.3-3.1,12.5-0.5,16.2,5.8l21.6,35.3c0.7,1.1,1.8,1.7,3,1.7c0.6,0,1.3-0.2,1.8-0.5c1.7-1,2.2-3.2,1.2-4.9
	l-15-24.6c-0.1-0.1-0.1-0.3-0.2-0.4c-3.7-6.3-1.8-14.2,4.2-17.7c6-3.5,13.8-1.2,17.5,5.1l44.1,73C340.1,272,330.8,293.2,302.2,311.9
	z"/>
</svg>
